<mxfile host="Electron" modified="2024-06-03T23:51:42.102Z" agent="Mozilla/5.0 (Windows NT 10.0; Win64; x64) AppleWebKit/537.36 (KHTML, like Gecko) draw.io/24.4.13 Chrome/124.0.6367.207 Electron/30.0.6 Safari/537.36" etag="STV-zBlWVTq9WJ_EvChp" version="24.4.13" type="device">
  <diagram name="Страница — 1" id="22d--6me8lqzAmcT708w">
    <mxGraphModel dx="915" dy="998" grid="1" gridSize="10" guides="1" tooltips="1" connect="1" arrows="1" fold="1" page="1" pageScale="1" pageWidth="827" pageHeight="1169" math="0" shadow="0">
      <root>
        <mxCell id="0" />
        <mxCell id="1" parent="0" />
        <mxCell id="HvQuzcgxxi1UsnFrRz9V-1" value="Начало" style="rounded=1;whiteSpace=wrap;html=1;arcSize=50;" vertex="1" parent="1">
          <mxGeometry x="360" y="30" width="120" height="20" as="geometry" />
        </mxCell>
        <mxCell id="HvQuzcgxxi1UsnFrRz9V-2" value="" style="endArrow=none;dashed=1;html=1;rounded=0;exitX=0;exitY=0.5;exitDx=0;exitDy=0;entryX=1;entryY=0.5;entryDx=0;entryDy=0;exitPerimeter=0;" edge="1" source="HvQuzcgxxi1UsnFrRz9V-3" target="HvQuzcgxxi1UsnFrRz9V-1" parent="1">
          <mxGeometry width="50" height="50" relative="1" as="geometry">
            <mxPoint x="540" y="45" as="sourcePoint" />
            <mxPoint x="520" y="45" as="targetPoint" />
          </mxGeometry>
        </mxCell>
        <mxCell id="HvQuzcgxxi1UsnFrRz9V-3" value="    Входные данные:&#xa;     int[,] main, int num, DataGridView Table" style="strokeWidth=2;shape=mxgraph.flowchart.annotation_1;align=left;pointerEvents=1;recursiveResize=1;autosize=0;verticalAlign=middle;horizontal=1;" vertex="1" parent="1">
          <mxGeometry x="550" y="5" width="50" height="70" as="geometry" />
        </mxCell>
        <mxCell id="HvQuzcgxxi1UsnFrRz9V-4" value="" style="endArrow=none;html=1;rounded=0;entryX=0.5;entryY=0;entryDx=0;entryDy=0;exitX=0.5;exitY=1;exitDx=0;exitDy=0;" edge="1" parent="1" source="HvQuzcgxxi1UsnFrRz9V-1" target="HvQuzcgxxi1UsnFrRz9V-7">
          <mxGeometry width="50" height="50" relative="1" as="geometry">
            <mxPoint x="390" y="110" as="sourcePoint" />
            <mxPoint x="420" y="60" as="targetPoint" />
          </mxGeometry>
        </mxCell>
        <mxCell id="HvQuzcgxxi1UsnFrRz9V-6" value="" style="endArrow=none;html=1;rounded=0;entryX=0.5;entryY=1;entryDx=0;entryDy=0;exitX=0.5;exitY=0;exitDx=0;exitDy=0;exitPerimeter=0;" edge="1" parent="1" source="HvQuzcgxxi1UsnFrRz9V-9" target="HvQuzcgxxi1UsnFrRz9V-7">
          <mxGeometry width="50" height="50" relative="1" as="geometry">
            <mxPoint x="420" y="90" as="sourcePoint" />
            <mxPoint x="420" y="90" as="targetPoint" />
          </mxGeometry>
        </mxCell>
        <mxCell id="HvQuzcgxxi1UsnFrRz9V-7" value="lenght_arr = Get_Length(main)" style="shape=process;whiteSpace=wrap;html=1;backgroundOutline=1;" vertex="1" parent="1">
          <mxGeometry x="300" y="55" width="240" height="20" as="geometry" />
        </mxCell>
        <mxCell id="HvQuzcgxxi1UsnFrRz9V-9" value="i = 0; length" style="strokeWidth=2;html=1;shape=mxgraph.flowchart.loop_limit;whiteSpace=wrap;" vertex="1" parent="1">
          <mxGeometry x="370" y="80" width="100" height="30" as="geometry" />
        </mxCell>
        <mxCell id="HvQuzcgxxi1UsnFrRz9V-10" value="i++" style="strokeWidth=2;html=1;shape=mxgraph.flowchart.loop_limit;whiteSpace=wrap;direction=west;" vertex="1" parent="1">
          <mxGeometry x="370" y="290" width="100" height="30" as="geometry" />
        </mxCell>
        <mxCell id="HvQuzcgxxi1UsnFrRz9V-13" value="" style="endArrow=none;html=1;rounded=0;entryX=0.5;entryY=0;entryDx=0;entryDy=0;exitX=0.5;exitY=1;exitDx=0;exitDy=0;exitPerimeter=0;entryPerimeter=0;" edge="1" source="HvQuzcgxxi1UsnFrRz9V-10" target="HvQuzcgxxi1UsnFrRz9V-24" parent="1">
          <mxGeometry width="50" height="50" relative="1" as="geometry">
            <mxPoint x="333" y="460" as="sourcePoint" />
            <mxPoint x="301" y="250" as="targetPoint" />
          </mxGeometry>
        </mxCell>
        <mxCell id="HvQuzcgxxi1UsnFrRz9V-23" value="j = 0; length" style="strokeWidth=2;html=1;shape=mxgraph.flowchart.loop_limit;whiteSpace=wrap;" vertex="1" parent="1">
          <mxGeometry x="370" y="120" width="100" height="30" as="geometry" />
        </mxCell>
        <mxCell id="HvQuzcgxxi1UsnFrRz9V-24" value="j++" style="strokeWidth=2;html=1;shape=mxgraph.flowchart.loop_limit;whiteSpace=wrap;direction=west;" vertex="1" parent="1">
          <mxGeometry x="370" y="250" width="100" height="30" as="geometry" />
        </mxCell>
        <mxCell id="HvQuzcgxxi1UsnFrRz9V-26" value="" style="endArrow=none;html=1;rounded=0;entryX=0.5;entryY=1;entryDx=0;entryDy=0;entryPerimeter=0;exitX=0.5;exitY=0;exitDx=0;exitDy=0;" edge="1" source="HvQuzcgxxi1UsnFrRz9V-30" target="HvQuzcgxxi1UsnFrRz9V-23" parent="1">
          <mxGeometry width="50" height="50" relative="1" as="geometry">
            <mxPoint x="420" y="160" as="sourcePoint" />
            <mxPoint x="496" y="330" as="targetPoint" />
          </mxGeometry>
        </mxCell>
        <mxCell id="HvQuzcgxxi1UsnFrRz9V-27" value="" style="endArrow=none;html=1;rounded=0;exitX=0.5;exitY=1;exitDx=0;exitDy=0;exitPerimeter=0;" edge="1" source="HvQuzcgxxi1UsnFrRz9V-24" parent="1">
          <mxGeometry width="50" height="50" relative="1" as="geometry">
            <mxPoint x="440" y="450" as="sourcePoint" />
            <mxPoint x="420" y="250" as="targetPoint" />
          </mxGeometry>
        </mxCell>
        <mxCell id="HvQuzcgxxi1UsnFrRz9V-29" value="" style="endArrow=none;html=1;rounded=0;entryX=0.5;entryY=0;entryDx=0;entryDy=0;exitX=0.5;exitY=1;exitDx=0;exitDy=0;exitPerimeter=0;entryPerimeter=0;" edge="1" parent="1" source="HvQuzcgxxi1UsnFrRz9V-9" target="HvQuzcgxxi1UsnFrRz9V-23">
          <mxGeometry width="50" height="50" relative="1" as="geometry">
            <mxPoint x="310" y="210" as="sourcePoint" />
            <mxPoint x="317" y="190" as="targetPoint" />
          </mxGeometry>
        </mxCell>
        <mxCell id="HvQuzcgxxi1UsnFrRz9V-30" value="if (main[i, j] &amp;gt; num)&amp;nbsp;" style="rhombus;whiteSpace=wrap;html=1;" vertex="1" parent="1">
          <mxGeometry x="345" y="160" width="150" height="40" as="geometry" />
        </mxCell>
        <mxCell id="HvQuzcgxxi1UsnFrRz9V-32" value="Нет" style="text;html=1;align=center;verticalAlign=middle;whiteSpace=wrap;rounded=0;" vertex="1" parent="1">
          <mxGeometry x="300" y="150" width="60" height="30" as="geometry" />
        </mxCell>
        <mxCell id="HvQuzcgxxi1UsnFrRz9V-33" value="Да" style="text;html=1;align=center;verticalAlign=middle;whiteSpace=wrap;rounded=0;" vertex="1" parent="1">
          <mxGeometry x="480" y="150" width="60" height="30" as="geometry" />
        </mxCell>
        <mxCell id="HvQuzcgxxi1UsnFrRz9V-34" value="" style="endArrow=none;html=1;rounded=0;exitX=0;exitY=0.5;exitDx=0;exitDy=0;" edge="1" parent="1" source="HvQuzcgxxi1UsnFrRz9V-30">
          <mxGeometry width="50" height="50" relative="1" as="geometry">
            <mxPoint x="320" y="220" as="sourcePoint" />
            <mxPoint x="420" y="250" as="targetPoint" />
            <Array as="points">
              <mxPoint x="320" y="180" />
              <mxPoint x="320" y="220" />
              <mxPoint x="320" y="240" />
              <mxPoint x="420" y="240" />
            </Array>
          </mxGeometry>
        </mxCell>
        <mxCell id="HvQuzcgxxi1UsnFrRz9V-35" value="" style="endArrow=none;html=1;rounded=0;entryX=0.5;entryY=0;entryDx=0;entryDy=0;exitX=1;exitY=0.5;exitDx=0;exitDy=0;" edge="1" target="HvQuzcgxxi1UsnFrRz9V-36" parent="1" source="HvQuzcgxxi1UsnFrRz9V-30">
          <mxGeometry width="50" height="50" relative="1" as="geometry">
            <mxPoint x="519.9999999999999" y="180" as="sourcePoint" />
            <mxPoint x="435.9999999999999" y="180" as="targetPoint" />
            <Array as="points">
              <mxPoint x="520" y="180" />
            </Array>
          </mxGeometry>
        </mxCell>
        <mxCell id="HvQuzcgxxi1UsnFrRz9V-36" value="Table.Rows[i + 1].Cells[j + 1].Selected = true" style="rounded=0;whiteSpace=wrap;html=1;" vertex="1" parent="1">
          <mxGeometry x="445" y="200" width="150" height="30" as="geometry" />
        </mxCell>
        <mxCell id="HvQuzcgxxi1UsnFrRz9V-37" value="" style="endArrow=none;html=1;rounded=0;entryX=0.5;entryY=1;entryDx=0;entryDy=0;" edge="1" target="HvQuzcgxxi1UsnFrRz9V-36" parent="1">
          <mxGeometry width="50" height="50" relative="1" as="geometry">
            <mxPoint x="420" y="250" as="sourcePoint" />
            <mxPoint x="515.9999999999999" y="250" as="targetPoint" />
            <Array as="points">
              <mxPoint x="420" y="240" />
              <mxPoint x="520" y="240" />
            </Array>
          </mxGeometry>
        </mxCell>
        <mxCell id="HvQuzcgxxi1UsnFrRz9V-38" value="Конец" style="rounded=1;whiteSpace=wrap;html=1;arcSize=50;" vertex="1" parent="1">
          <mxGeometry x="360" y="330" width="120" height="20" as="geometry" />
        </mxCell>
        <mxCell id="HvQuzcgxxi1UsnFrRz9V-39" value="" style="endArrow=none;html=1;rounded=0;entryX=0.5;entryY=0;entryDx=0;entryDy=0;exitX=0.5;exitY=0;exitDx=0;exitDy=0;exitPerimeter=0;" edge="1" target="HvQuzcgxxi1UsnFrRz9V-38" parent="1" source="HvQuzcgxxi1UsnFrRz9V-10">
          <mxGeometry width="50" height="50" relative="1" as="geometry">
            <mxPoint x="450" y="370" as="sourcePoint" />
            <mxPoint x="480" y="410" as="targetPoint" />
          </mxGeometry>
        </mxCell>
      </root>
    </mxGraphModel>
  </diagram>
</mxfile>
